<?xml version="1.0" encoding="utf-8"?>
<!-- Generator: Adobe Illustrator 24.1.1, SVG Export Plug-In . SVG Version: 6.00 Build 0)  -->
<svg version="1.1" id="Capa_1" xmlns="http://www.w3.org/2000/svg" xmlns:xlink="http://www.w3.org/1999/xlink" x="0px" y="0px"
	 viewBox="0 0 515.83 628.25" style="enable-background:new 0 0 515.83 628.25;" xml:space="preserve">
<style type="text/css">
	.st0{fill:#FFFFFF;}
	.st1{clip-path:url(#SVGID_1_);fill:url(#SVGID_2_);}
	.st2{opacity:0.64;}
	.st3{clip-path:url(#SVGID_3_);}
	.st4{filter:url(#Adobe_OpacityMaskFilter);}
	.st5{clip-path:url(#SVGID_4_);fill:url(#SVGID_6_);}
	.st6{clip-path:url(#SVGID_4_);mask:url(#SVGID_5_);fill:url(#SVGID_7_);}
	.st7{clip-path:url(#SVGID_8_);}
	.st8{filter:url(#Adobe_OpacityMaskFilter_1_);}
	.st9{clip-path:url(#SVGID_9_);fill:url(#SVGID_11_);}
	.st10{clip-path:url(#SVGID_9_);mask:url(#SVGID_10_);fill:url(#SVGID_12_);}
	.st11{clip-path:url(#SVGID_13_);}
	.st12{filter:url(#Adobe_OpacityMaskFilter_2_);}
	.st13{clip-path:url(#SVGID_14_);fill:url(#SVGID_16_);}
	.st14{clip-path:url(#SVGID_14_);mask:url(#SVGID_15_);fill:url(#SVGID_17_);}
	.st15{clip-path:url(#SVGID_18_);}
	.st16{filter:url(#Adobe_OpacityMaskFilter_3_);}
	.st17{clip-path:url(#SVGID_19_);fill:url(#SVGID_21_);}
	.st18{clip-path:url(#SVGID_19_);mask:url(#SVGID_20_);fill:url(#SVGID_22_);}
</style>
<g>
	<g>
		<g>
			<path class="st0" d="M86.9,547.9l-0.14-65.62l-24.54,24.6c-2.28,2.29-5.38,3.57-8.62,3.57c-3.15,0-6.18-1.22-8.44-3.41
				l-24.43-23.54v64.39H0v-82.27c0-7.3,5.92-13.23,13.23-13.23c3.25,0,6.39,1.2,8.82,3.37l31.98,28.62l31.45-28.58
				c2.41-2.19,5.56-3.41,8.82-3.41c7.23,0,13.09,5.85,13.11,13.08l0.24,82.42H86.9z"/>
			<path class="st0" d="M187.4,527.44h-44.34l-8.46,20.46h-22.65l38.12-85.52c2.7-6.07,8.72-9.97,15.37-9.97
				c6.63,0,12.65,3.9,15.36,9.96l38.25,85.54h-23.19L187.4,527.44z M180.45,510.66l-15.14-36.56l-15.14,36.56H180.45z"/>
			<path class="st0" d="M215.88,500.15c0-28.78,22.1-49.38,51.84-49.38c16.51,0,30.29,6,39.29,16.92l-14.19,13.1
				c-6.41-7.37-14.46-11.19-24.01-11.19c-17.87,0-30.56,12.55-30.56,30.56c0,18.01,12.69,30.56,30.56,30.56
				c9.55,0,17.6-3.82,24.01-11.32l14.19,13.1c-9,11.05-22.78,17.05-39.43,17.05C237.98,549.54,215.88,528.94,215.88,500.15z"/>
			<path class="st0" d="M382.86,527.44h-44.34l-8.46,20.46h-22.65l38.12-85.52c2.7-6.07,8.72-9.97,15.37-9.97h0
				c6.63,0,12.65,3.9,15.36,9.96l38.25,85.54h-23.19L382.86,527.44z M375.9,510.66l-15.14-36.56l-15.14,36.56H375.9z"/>
			<path class="st0" d="M411.34,500.15c0-28.38,22.1-49.38,52.25-49.38c30.01,0,52.25,20.87,52.25,49.38
				c0,28.51-22.24,49.38-52.25,49.38C433.44,549.54,411.34,528.53,411.34,500.15z M493.46,500.15c0-18.14-12.82-30.56-29.88-30.56
				c-17.05,0-29.88,12.41-29.88,30.56c0,18.14,12.82,30.56,29.88,30.56C480.64,530.71,493.46,518.3,493.46,500.15z"/>
			<g>
				<path class="st0" d="M109.73,577.37L109.73,577.37c1.98,0,3.59,1.61,3.59,3.59v43.12c0,1.98-1.61,3.59-3.59,3.59
					c-1.98,0-3.59-1.61-3.59-3.59v-43.12C106.14,578.98,107.75,577.37,109.73,577.37"/>
				<path class="st0" d="M171.58,619.71l0.02-0.04c0.79-1.66,2.83-2.23,4.41-1.28c3.73,2.26,8.73,3.75,13.78,3.75
					c8.7,0,12.43-3.38,12.43-7.76c0-12.29-30.47-4.53-30.47-23.21c0-7.76,6.04-14.37,19.26-14.37c4.83,0,9.81,1.06,13.74,3.03
					c1.42,0.71,2.02,2.42,1.41,3.89l-0.05,0.12c-0.68,1.64-2.59,2.33-4.19,1.57c-3.6-1.7-7.41-2.5-10.91-2.5
					c-8.55,0-12.22,3.59-12.22,7.98c0,12.29,30.47,4.6,30.47,23.07c0,7.69-6.18,14.3-19.47,14.3c-6.47,0-12.84-1.83-17.09-4.64
					C171.41,622.76,170.92,621.11,171.58,619.71"/>
				<path class="st0" d="M404.59,580.97v43.12c0,1.98-1.61,3.59-3.59,3.59h-0.58c-1.09,0-2.12-0.49-2.8-1.34l-29.1-36.17v33.92
					c0,1.98-1.61,3.59-3.59,3.59c-1.98,0-3.59-1.61-3.59-3.59v-43.12c0-1.98,1.61-3.59,3.59-3.59h0.58c1.09,0,2.12,0.49,2.8,1.34
					l29.1,36.17v-33.92c0-1.98,1.61-3.59,3.59-3.59C402.99,577.37,404.59,578.98,404.59,580.97 M373.01,572.7L373.01,572.7
					c-1.26,0-2.18-1.16-1.93-2.4c0.79-3.93,3.28-6.37,6.78-6.37c4.6,0,6.9,4.89,9.56,4.89c1.66,0,2.91-1.05,3.42-2.83
					c0.25-0.87,1.01-1.49,1.91-1.49c1.27,0,2.2,1.18,1.93,2.41c-0.81,3.75-3.29,6.14-6.76,6.14c-4.6,0-6.9-4.81-9.56-4.81
					c-1.68,0-2.94,1.07-3.44,2.95C374.69,572.08,373.92,572.7,373.01,572.7"/>
				<path class="st0" d="M462.31,602.53c0-14.73,11.35-25.73,26.8-25.73c15.31,0,26.66,10.92,26.66,25.73
					c0,14.8-11.35,25.73-26.66,25.73C473.66,628.25,462.31,617.26,462.31,602.53 M508.58,602.53c0-11.14-8.34-19.33-19.47-19.33
					c-11.28,0-19.62,8.19-19.62,19.33c0,11.14,8.34,19.33,19.62,19.33C500.25,621.86,508.58,613.66,508.58,602.53"/>
				<path class="st0" d="M21.26,577.37H3.19c-1.73,0-3.13,1.4-3.13,3.13c0,1.73,1.4,3.13,3.13,3.13h17.64
					c12.43,0,20.41,7.62,20.41,18.9c0,11.28-7.98,18.9-20.41,18.9H3.19c-1.73,0-3.13,1.4-3.13,3.13c0,1.73,1.4,3.13,3.13,3.13h18.07
					c16.17,0,27.16-10.2,27.16-25.15C48.43,587.58,37.43,577.37,21.26,577.37"/>
				<path class="st0" d="M273.66,605.18h14.09c1.69,0,3.05-1.37,3.05-3.05s-1.37-3.05-3.05-3.05h-14.09v-15.45h25.26
					c1.69,0,3.05-1.37,3.05-3.05v-0.14c0-1.69-1.37-3.05-3.05-3.05h-32.45v50.3h33.45c1.69,0,3.05-1.37,3.05-3.05v-0.14
					c0-1.69-1.37-3.05-3.05-3.05h-26.27V605.18z"/>
			</g>
		</g>
	</g>
	<g>
		<g>
			<defs>
				<path id="SVGID_32_" d="M107.24,221.34l40.09-107.14l35.73,70.77l-64.13,170.89C95.02,315.26,90.52,266.03,107.24,221.34
					 M339.22,184.97l35.73-70.77l40.09,107.14c16.72,44.69,12.23,93.92-11.69,134.51L339.22,184.97z M215.66,183.19l45.48-121.2
					l45.48,121.2l-45.48,90.08L215.66,183.19z M249.43,8.12l-52.08,138.8l-41.21-81.62c-4.92-9.74-19.07-8.96-22.89,1.25l-54,144.31
					c-22.06,58.95-13.11,124.52,23.94,175.41l10.26,14.1c5.86,8.05,18.33,6.36,21.83-2.97l66.1-176.15l48.59,96.24
					c4.63,9.16,17.71,9.16,22.34,0l48.59-96.24L387,397.4c3.5,9.33,15.97,11.02,21.83,2.97l10.26-14.1
					c37.05-50.88,46-116.46,23.94-175.41l-54-144.31c-3.82-10.21-17.97-10.99-22.89-1.25l-41.21,81.62L272.86,8.12
					C270.83,2.71,265.98,0,261.14,0C256.3,0,251.46,2.71,249.43,8.12"/>
			</defs>
			<clipPath id="SVGID_1_">
				<use xlink:href="#SVGID_32_"  style="overflow:visible;"/>
			</clipPath>
			
				<linearGradient id="SVGID_2_" gradientUnits="userSpaceOnUse" x1="212.2314" y1="-360.4882" x2="212.9788" y2="-360.4882" gradientTransform="matrix(0 -542.5682 -542.5682 0 -195328.3125 115555.5391)">
				<stop  offset="0" style="stop-color:#FBB830"/>
				<stop  offset="1" style="stop-color:#FBD94D"/>
			</linearGradient>
			<rect x="57.19" class="st1" width="407.91" height="408.42"/>
		</g>
		<g class="st2">
			<g>
				<defs>
					<rect id="SVGID_35_" x="321.14" y="185.24" width="38.3" height="69.08"/>
				</defs>
				<clipPath id="SVGID_3_">
					<use xlink:href="#SVGID_35_"  style="overflow:visible;"/>
				</clipPath>
				<g class="st3">
					<defs>
						<polygon id="SVGID_37_" points="321.14,221.62 322.19,224.69 333.32,254.33 359.44,239.49 355.22,227.62 339.32,185.24 						
							"/>
					</defs>
					<clipPath id="SVGID_4_">
						<use xlink:href="#SVGID_37_"  style="overflow:visible;"/>
					</clipPath>
					<defs>
						<filter id="Adobe_OpacityMaskFilter" filterUnits="userSpaceOnUse" x="286.74" y="166.17" width="107.09" height="107.22">
							<feColorMatrix  type="matrix" values="1 0 0 0 0  0 1 0 0 0  0 0 1 0 0  0 0 0 1 0"/>
						</filter>
					</defs>
					<mask maskUnits="userSpaceOnUse" x="286.74" y="166.17" width="107.09" height="107.22" id="SVGID_5_">
						<g class="st4">
							
								<linearGradient id="SVGID_6_" gradientUnits="userSpaceOnUse" x1="214.8019" y1="-376.2835" x2="215.5493" y2="-376.2835" gradientTransform="matrix(68.4042 62.4038 62.4038 -68.4042 9104.5059 -38945.8906)">
								<stop  offset="0" style="stop-color:#FFFFFF"/>
								<stop  offset="0.1448" style="stop-color:#CFCFCF"/>
								<stop  offset="0.3812" style="stop-color:#868686"/>
								<stop  offset="0.5934" style="stop-color:#4D4D4D"/>
								<stop  offset="0.7737" style="stop-color:#232323"/>
								<stop  offset="0.9151" style="stop-color:#090909"/>
								<stop  offset="1" style="stop-color:#000000"/>
							</linearGradient>
							<polygon class="st5" points="338.53,166.17 393.84,216.62 342.04,273.4 286.74,222.95 							"/>
						</g>
					</mask>
					
						<linearGradient id="SVGID_7_" gradientUnits="userSpaceOnUse" x1="214.8019" y1="-376.2835" x2="215.5493" y2="-376.2835" gradientTransform="matrix(68.4042 62.4038 62.4038 -68.4042 9104.5059 -38945.8906)">
						<stop  offset="0" style="stop-color:#404040"/>
						<stop  offset="0.2359" style="stop-color:#7A7A7A"/>
						<stop  offset="0.4961" style="stop-color:#B3B3B3"/>
						<stop  offset="0.7195" style="stop-color:#DCDCDC"/>
						<stop  offset="0.8947" style="stop-color:#F6F6F6"/>
						<stop  offset="1" style="stop-color:#FFFFFF"/>
					</linearGradient>
					<polygon class="st6" points="338.53,166.17 393.84,216.62 342.04,273.4 286.74,222.95 					"/>
				</g>
			</g>
		</g>
		<g class="st2">
			<g>
				<defs>
					<rect id="SVGID_42_" x="286.01" y="114.83" width="38.87" height="68.84"/>
				</defs>
				<clipPath id="SVGID_8_">
					<use xlink:href="#SVGID_42_"  style="overflow:visible;"/>
				</clipPath>
				<g class="st7">
					<defs>
						<polygon id="SVGID_44_" points="324.02,144.46 312.9,114.83 286.01,128.26 306.62,183.19 306.47,183.5 306.53,183.67 
							324.87,146.88 						"/>
					</defs>
					<clipPath id="SVGID_9_">
						<use xlink:href="#SVGID_44_"  style="overflow:visible;"/>
					</clipPath>
					<defs>
						<filter id="Adobe_OpacityMaskFilter_1_" filterUnits="userSpaceOnUse" x="261.04" y="100.74" width="88.8" height="97.03">
							<feColorMatrix  type="matrix" values="1 0 0 0 0  0 1 0 0 0  0 0 1 0 0  0 0 0 1 0"/>
						</filter>
					</defs>
					<mask maskUnits="userSpaceOnUse" x="261.04" y="100.74" width="88.8" height="97.03" id="SVGID_10_">
						<g class="st8">
							
								<linearGradient id="SVGID_11_" gradientUnits="userSpaceOnUse" x1="207.4601" y1="-349.4605" x2="208.2075" y2="-349.4605" gradientTransform="matrix(-37.3296 -86.8739 -86.8739 37.3296 -22293.873 31252.8789)">
								<stop  offset="0" style="stop-color:#FFFFFF"/>
								<stop  offset="0.1448" style="stop-color:#CFCFCF"/>
								<stop  offset="0.3812" style="stop-color:#868686"/>
								<stop  offset="0.5934" style="stop-color:#4D4D4D"/>
								<stop  offset="0.7737" style="stop-color:#232323"/>
								<stop  offset="0.9151" style="stop-color:#090909"/>
								<stop  offset="1" style="stop-color:#000000"/>
							</linearGradient>
							<polygon class="st9" points="292.07,197.77 261.04,125.56 318.82,100.74 349.84,172.94 							"/>
						</g>
					</mask>
					
						<linearGradient id="SVGID_12_" gradientUnits="userSpaceOnUse" x1="207.4601" y1="-349.4605" x2="208.2075" y2="-349.4605" gradientTransform="matrix(-37.3296 -86.8739 -86.8739 37.3296 -22293.877 31252.8809)">
						<stop  offset="0" style="stop-color:#404040"/>
						<stop  offset="0.2359" style="stop-color:#7A7A7A"/>
						<stop  offset="0.4961" style="stop-color:#B3B3B3"/>
						<stop  offset="0.7195" style="stop-color:#DCDCDC"/>
						<stop  offset="0.8947" style="stop-color:#F6F6F6"/>
						<stop  offset="1" style="stop-color:#FFFFFF"/>
					</linearGradient>
					<polygon class="st10" points="292.07,197.77 261.04,125.56 318.82,100.74 349.84,172.94 					"/>
				</g>
			</g>
		</g>
		<g class="st2">
			<g>
				<defs>
					<rect id="SVGID_49_" x="163.44" y="185.29" width="37.94" height="67.65"/>
				</defs>
				<clipPath id="SVGID_13_">
					<use xlink:href="#SVGID_49_"  style="overflow:visible;"/>
				</clipPath>
				<g class="st11">
					<defs>
						<polygon id="SVGID_51_" points="182.94,185.29 164.59,234.19 163.44,237.31 189.49,252.94 201.37,221.26 						"/>
					</defs>
					<clipPath id="SVGID_14_">
						<use xlink:href="#SVGID_51_"  style="overflow:visible;"/>
					</clipPath>
					<defs>
						<filter id="Adobe_OpacityMaskFilter_2_" filterUnits="userSpaceOnUse" x="137.26" y="170.61" width="90.3" height="97.02">
							<feColorMatrix  type="matrix" values="1 0 0 0 0  0 1 0 0 0  0 0 1 0 0  0 0 0 1 0"/>
						</filter>
					</defs>
					<mask maskUnits="userSpaceOnUse" x="137.26" y="170.61" width="90.3" height="97.02" id="SVGID_15_">
						<g class="st12">
							
								<linearGradient id="SVGID_16_" gradientUnits="userSpaceOnUse" x1="228.0256" y1="-365.1262" x2="228.773" y2="-365.1262" gradientTransform="matrix(-38.8891 82.0656 82.0656 38.8891 39026.832 -4320.6699)">
								<stop  offset="0" style="stop-color:#FFFFFF"/>
								<stop  offset="0.1448" style="stop-color:#CFCFCF"/>
								<stop  offset="0.3812" style="stop-color:#868686"/>
								<stop  offset="0.5934" style="stop-color:#4D4D4D"/>
								<stop  offset="0.7737" style="stop-color:#232323"/>
								<stop  offset="0.9151" style="stop-color:#090909"/>
								<stop  offset="1" style="stop-color:#000000"/>
							</linearGradient>
							<polygon class="st13" points="227.55,197.69 194.42,267.62 137.26,240.53 170.39,170.61 							"/>
						</g>
					</mask>
					
						<linearGradient id="SVGID_17_" gradientUnits="userSpaceOnUse" x1="228.0256" y1="-365.1262" x2="228.773" y2="-365.1262" gradientTransform="matrix(-38.8891 82.0656 82.0656 38.8891 39026.832 -4320.6699)">
						<stop  offset="0" style="stop-color:#404040"/>
						<stop  offset="0.2359" style="stop-color:#7A7A7A"/>
						<stop  offset="0.4961" style="stop-color:#B3B3B3"/>
						<stop  offset="0.7195" style="stop-color:#DCDCDC"/>
						<stop  offset="0.8947" style="stop-color:#F6F6F6"/>
						<stop  offset="1" style="stop-color:#FFFFFF"/>
					</linearGradient>
					<polygon class="st14" points="227.55,197.69 194.42,267.62 137.26,240.53 170.39,170.61 					"/>
				</g>
			</g>
		</g>
		<g class="st2">
			<g>
				<defs>
					<rect id="SVGID_56_" x="197.39" y="114.38" width="38.86" height="69.12"/>
				</defs>
				<clipPath id="SVGID_18_">
					<use xlink:href="#SVGID_56_"  style="overflow:visible;"/>
				</clipPath>
				<g class="st15">
					<defs>
						<polygon id="SVGID_58_" points="215.75,183.5 215.78,183.43 215.66,183.19 236.25,128.32 209.55,114.38 197.39,146.78 						
							"/>
					</defs>
					<clipPath id="SVGID_19_">
						<use xlink:href="#SVGID_58_"  style="overflow:visible;"/>
					</clipPath>
					<defs>
						<filter id="Adobe_OpacityMaskFilter_3_" filterUnits="userSpaceOnUse" x="174" y="101.23" width="85.65" height="95.42">
							<feColorMatrix  type="matrix" values="1 0 0 0 0  0 1 0 0 0  0 0 1 0 0  0 0 0 1 0"/>
						</filter>
					</defs>
					<mask maskUnits="userSpaceOnUse" x="174" y="101.23" width="85.65" height="95.42" id="SVGID_20_">
						<g class="st16">
							
								<linearGradient id="SVGID_21_" gradientUnits="userSpaceOnUse" x1="200.3602" y1="-358.0398" x2="201.1076" y2="-358.0398" gradientTransform="matrix(33.4772 -85.8413 -85.8413 -33.4772 -37236.7227 5391.2617)">
								<stop  offset="0" style="stop-color:#FFFFFF"/>
								<stop  offset="0.1448" style="stop-color:#CFCFCF"/>
								<stop  offset="0.3812" style="stop-color:#868686"/>
								<stop  offset="0.5934" style="stop-color:#4D4D4D"/>
								<stop  offset="0.7737" style="stop-color:#232323"/>
								<stop  offset="0.9151" style="stop-color:#090909"/>
								<stop  offset="1" style="stop-color:#000000"/>
							</linearGradient>
							<polygon class="st17" points="174,174.37 202.52,101.23 259.65,123.5 231.12,196.65 							"/>
						</g>
					</mask>
					
						<linearGradient id="SVGID_22_" gradientUnits="userSpaceOnUse" x1="200.3602" y1="-358.0398" x2="201.1076" y2="-358.0398" gradientTransform="matrix(33.4772 -85.8413 -85.8413 -33.4772 -37236.7266 5391.2617)">
						<stop  offset="0" style="stop-color:#404040"/>
						<stop  offset="0.2359" style="stop-color:#7A7A7A"/>
						<stop  offset="0.4961" style="stop-color:#B3B3B3"/>
						<stop  offset="0.7195" style="stop-color:#DCDCDC"/>
						<stop  offset="0.8947" style="stop-color:#F6F6F6"/>
						<stop  offset="1" style="stop-color:#FFFFFF"/>
					</linearGradient>
					<polygon class="st18" points="174,174.37 202.52,101.23 259.65,123.5 231.12,196.65 					"/>
				</g>
			</g>
		</g>
	</g>
</g>
</svg>
